<?xml version="1.0" encoding="utf-8"?>
<!-- Generator: Adobe Illustrator 23.1.0, SVG Export Plug-In . SVG Version: 6.00 Build 0)  -->
<svg version="1.1" id="Calque_2" xmlns="http://www.w3.org/2000/svg" xmlns:xlink="http://www.w3.org/1999/xlink" x="0px" y="0px"
	 viewBox="0 0 101 100" style="enable-background:new 0 0 101 100;" xml:space="preserve">
<style type="text/css">
	.st0{fill:#02A1CC;}
	.st1{fill:#FD6C9E;}
</style>
<path class="st0" d="M14.14,76.91c1.41-8.55,3.35-14.97,4.33-20.7c4.41-25.86,10.33-35.62,16.7-36.24
	c2.9-0.28,6.25,11.12,8.15,31.03c0.84,8.84,3.24,16.65,4.06,19.51l-2.72,7.88c-4.66,3.76-9.74-50.64-11.81-51.25
	c-2.38-0.7-13.6,42.9-15.8,59.5c-0.3,2.27-2.7,3.16-4.15,3.38c-0.84,0.12-1.56,0.28-2.18-0.03C9.19,89.22,10.62,85.73,14.14,76.91z"
	/>
<path class="st1" d="M44.65,78.39l2.72-7.88c4.44-10.99,9.37-25.78,13.5-37.71c1.81-5.22,6.44-15.81,9.71-20.98
	c1.65-2.6,5.28-1.97,5.71-0.86c0.97,2.51,1.94,6.47,2.75,11.68c1.04,6.66,2.69,15.3,3.08,25.29c0.51,13.34,4.79,32.33,7.36,33.76
	c5.5,3.07-5.62,6.62-6.7,4.57c-1.92-4.5-3.25-11.4-4.79-19.46c-1.44-7.56-2.73-17.73-3.42-29.78c-0.27-4.76-1.37-9.39-2.09-13.85
	c-0.65-4.03-1.04-1.88-1.71,0.13c-1.46,2.95-3.68,7.38-5.36,12.97C61.88,48.1,57.1,61.74,52.28,73.47
	C49.69,77.06,47.16,78.3,44.65,78.39z"/>
</svg>
